<svg width="61" height="61" viewBox="0 0 61 61" fill="none" xmlns="http://www.w3.org/2000/svg">
<path d="M18.0667 0.666504H43.2668C52.8668 0.666504 60.6667 8.4665 60.6667 18.0665V43.2665C60.6667 47.8813 58.8335 52.307 55.5704 55.5702C52.3073 58.8333 47.8815 60.6665 43.2668 60.6665H18.0667C8.46675 60.6665 0.666748 52.8665 0.666748 43.2665V18.0665C0.666748 13.4517 2.49996 9.02598 5.76309 5.76285C9.02622 2.49971 13.452 0.666504 18.0667 0.666504ZM17.4667 6.6665C14.6024 6.6665 11.8554 7.80436 9.83 9.82975C7.8046 11.8551 6.66675 14.6022 6.66675 17.4665V43.8665C6.66675 49.8365 11.4967 54.6665 17.4667 54.6665H43.8667C46.7311 54.6665 49.4781 53.5287 51.5035 51.5033C53.5289 49.4779 54.6667 46.7308 54.6667 43.8665V17.4665C54.6667 11.4965 49.8367 6.6665 43.8667 6.6665H17.4667ZM46.4167 11.1665C47.4113 11.1665 48.3651 11.5616 49.0684 12.2649C49.7717 12.9681 50.1667 13.9219 50.1667 14.9165C50.1667 15.9111 49.7717 16.8649 49.0684 17.5682C48.3651 18.2714 47.4113 18.6665 46.4167 18.6665C45.4222 18.6665 44.4684 18.2714 43.7651 17.5682C43.0618 16.8649 42.6667 15.9111 42.6667 14.9165C42.6667 13.9219 43.0618 12.9681 43.7651 12.2649C44.4684 11.5616 45.4222 11.1665 46.4167 11.1665ZM30.6667 15.6665C34.645 15.6665 38.4603 17.2469 41.2733 20.0599C44.0864 22.8729 45.6667 26.6883 45.6667 30.6665C45.6667 34.6448 44.0864 38.4601 41.2733 41.2731C38.4603 44.0862 34.645 45.6665 30.6667 45.6665C26.6885 45.6665 22.8732 44.0862 20.0601 41.2731C17.2471 38.4601 15.6667 34.6448 15.6667 30.6665C15.6667 26.6883 17.2471 22.8729 20.0601 20.0599C22.8732 17.2469 26.6885 15.6665 30.6667 15.6665ZM30.6667 21.6665C28.2798 21.6665 25.9906 22.6147 24.3028 24.3025C22.615 25.9904 21.6667 28.2796 21.6667 30.6665C21.6667 33.0535 22.615 35.3426 24.3028 37.0305C25.9906 38.7183 28.2798 39.6665 30.6667 39.6665C33.0537 39.6665 35.3429 38.7183 37.0307 37.0305C38.7185 35.3426 39.6667 33.0535 39.6667 30.6665C39.6667 28.2796 38.7185 25.9904 37.0307 24.3025C35.3429 22.6147 33.0537 21.6665 30.6667 21.6665Z" fill="black"/>
</svg>
