<svg xmlns="http://www.w3.org/2000/svg" xmlns:xlink="http://www.w3.org/1999/xlink" width="1" height="690" viewBox="0 0 1 690"><defs><clipPath id="a"><rect width="1" height="690" transform="translate(-9360 -11096.7)" fill="#fff"/></clipPath><clipPath id="b"><rect width="923.062" height="728.337" fill="none"/></clipPath></defs><g transform="translate(9360 11096.7)" clip-path="url(#a)"><g transform="translate(-9379.235 -11130.668)" clip-path="url(#b)"><g transform="translate(-107 -4743)"><rect width="963" height="34" transform="translate(107 4743)" fill="#f25a89"/></g><g transform="translate(-107 -4674)"><rect width="963" height="34" transform="translate(107 4743)" fill="#f25a89"/></g><g transform="translate(-107 -4605)"><rect width="963" height="34" transform="translate(107 4743)" fill="#f25a89"/></g><g transform="translate(-107 -4536)"><rect width="963" height="34" transform="translate(107 4743)" fill="#f25a89"/></g><g transform="translate(-107 -4467)"><rect width="963" height="34" transform="translate(107 4743)" fill="#f25a89"/></g><g transform="translate(-107 -4398)"><rect width="963" height="34" transform="translate(107 4743)" fill="#f25a89"/></g><g transform="translate(-107 -4329)"><rect width="963" height="34" transform="translate(107 4743)" fill="#f25a89"/></g><g transform="translate(-107 -4260)"><rect width="963" height="34" transform="translate(107 4743)" fill="#f25a89"/></g><g transform="translate(-107 -4191)"><rect width="963" height="34" transform="translate(107 4743)" fill="#f25a89"/></g><g transform="translate(-107 -4122)"><rect width="963" height="34" transform="translate(107 4743)" fill="#f25a89"/></g><g transform="translate(-107 -4053)"><rect width="963" height="34" transform="translate(107 4743)" fill="#f25a89"/></g></g></g></svg>