<svg width="320" height="276" viewBox="0 0 320 276" fill="none" xmlns="http://www.w3.org/2000/svg">
<path d="M230.809 1L257.456 35.25M230.809 1H213.052H248.588M230.809 1H248.588M257.456 12.4167L310.75 12.4167M257.456 12.4167L266.345 23.8333L248.588 46.6667M257.456 12.4167L248.588 1M151.25 12.4167H204.544L231.191 46.6667M213.412 1L159.779 69.5M159.779 69.5L266.706 69.5M159.779 69.5L213.073 138M248.588 1H319.618L142.382 1M248.588 46.6667H213.052M248.588 46.6667L257.456 58.0833M150.889 80.9167L177.558 115.167M204.183 35.2658L177.536 69.5M204.183 35.2658L195.294 23.8333H159.779M204.183 35.2658L213.052 46.6667M177.536 23.8333L150.889 58.0833M204.183 80.9167L257.477 80.9167L284.103 115.167M213.073 92.3333L204.162 80.9167L195.294 69.5M213.052 46.6667L204.183 58.0676L195.294 69.4843M257.456 58.0833H204.183M257.456 58.0833L284.464 23.8333M213.073 138L257.498 80.9167L301.882 23.8333H266.727M213.073 138L142 138M159.779 115.167L195.294 115.167L213.052 92.3333L249.33 92.3333L258.199 103.75L267.109 115.167M177.558 69.5L204.183 103.75M311.111 103.75L284.485 69.5L311.132 35.25M231.552 92.3333L204.183 126.583L150.889 126.583M258.177 103.75L231.021 138M257.838 126.583H311.132M257.838 126.583L248.97 138H320L142.021 138M257.838 126.583L266.706 115.167H302.242L257.477 58.0833L213.052 1.01575M266.727 69.5H302.242" stroke="black"/>
<path d="M230.809 138L257.456 172.25M230.809 138H213.052H248.588M230.809 138H248.588M257.456 149.417H310.75M257.456 149.417L266.345 160.833L248.588 183.667M257.456 149.417L248.588 138M151.25 149.417H204.544L231.191 183.667M213.412 138L159.779 206.5M159.779 206.5H266.706M159.779 206.5L213.073 275M248.588 138H319.618L142.382 138M248.588 183.667H213.052M248.588 183.667L257.456 195.083M150.889 217.917L177.558 252.167M204.183 172.266L177.536 206.5M204.183 172.266L195.294 160.833H159.779M204.183 172.266L213.052 183.667M177.536 160.833L150.889 195.083M204.183 217.917H257.477L284.103 252.167M213.073 229.333L204.162 217.917L195.294 206.5M213.052 183.667L204.183 195.068L195.294 206.484M257.456 195.083H204.183M257.456 195.083L284.464 160.833M213.073 275L257.498 217.917L301.882 160.833H266.727M213.073 275H142M159.779 252.167L195.294 252.167L213.052 229.333H249.33L258.199 240.75L267.109 252.167M177.558 206.5L204.183 240.75M311.111 240.75L284.485 206.5L311.132 172.25M231.552 229.333L204.183 263.583H150.889M258.177 240.75L231.021 275M257.838 263.583H311.132M257.838 263.583L248.97 275H320H142.021M257.838 263.583L266.706 252.167H302.242L257.477 195.083L213.052 138.016M266.727 206.5H302.242" stroke="black"/>
<path d="M89.1909 138L62.544 103.75M89.1909 138H106.948H71.4122M89.1909 138H71.4122M62.544 126.583H9.25006M62.544 126.583L53.6546 115.167L71.4122 92.3333M62.544 126.583L71.4122 138M168.75 126.583H115.456L88.8091 92.3333M106.588 138L160.221 69.5M160.221 69.5H53.2939M160.221 69.5L106.927 1M71.4122 138H0.381884H177.618M71.4122 92.3333H106.948M71.4122 92.3333L62.544 80.9167M169.111 58.0833L142.442 23.8333M115.817 103.734L142.464 69.5M115.817 103.734L124.706 115.167H160.221M115.817 103.734L106.948 92.3333M142.464 115.167L169.111 80.9167M115.817 58.0833H62.5228L35.897 23.8333M106.927 46.6667L115.838 58.0833L124.706 69.5M106.948 92.3333L115.817 80.9324L124.706 69.5157M62.544 80.9167H115.817M62.544 80.9167L35.5364 115.167M106.927 1L62.5015 58.0833L18.1182 115.167H53.2727M106.927 1H178M160.221 23.8333H124.706L106.948 46.6667H70.6696L61.8014 35.25L52.8908 23.8333M142.442 69.5L115.817 35.25M8.88939 35.25L35.5151 69.5L8.86817 103.75M88.4484 46.6667L115.817 12.4167H169.111M61.8226 35.25L88.9788 1M62.1621 12.4167H8.86817M62.1621 12.4167L71.0303 1H0H177.979M62.1621 12.4167L53.2939 23.8333H17.7576L62.5228 80.9167L106.948 137.984M53.2727 69.5H17.7576" stroke="black"/>
<path d="M89.1909 275L62.544 240.75M89.1909 275H106.948H71.4122M89.1909 275H71.4122M62.544 263.583H9.25006M62.544 263.583L53.6546 252.167L71.4122 229.333M62.544 263.583L71.4122 275M168.75 263.583H115.456L88.8091 229.333M106.588 275L160.221 206.5M160.221 206.5H53.2939M160.221 206.5L106.927 138M71.4122 275H0.381884H177.618M71.4122 229.333H106.948M71.4122 229.333L62.544 217.917M169.111 195.083L142.442 160.833M115.817 240.734L142.464 206.5M115.817 240.734L124.706 252.167H160.221M115.817 240.734L106.948 229.333M142.464 252.167L169.111 217.917M115.817 195.083H62.5228L35.897 160.833M106.927 183.667L115.838 195.083L124.706 206.5M106.948 229.333L115.817 217.932L124.706 206.516M62.544 217.917H115.817M62.544 217.917L35.5364 252.167M106.927 138L62.5015 195.083L18.1182 252.167H53.2727M106.927 138H178M160.221 160.833H124.706L106.948 183.667H70.6696L61.8014 172.25L52.8908 160.833M142.442 206.5L115.817 172.25M8.88939 172.25L35.5151 206.5L8.86817 240.75M88.4484 183.667L115.817 149.417H169.111M61.8226 172.25L88.9788 138M62.1621 149.417H8.86817M62.1621 149.417L71.0303 138H0H177.979M62.1621 149.417L53.2939 160.833H17.7576L62.5228 217.917L106.948 274.984M53.2727 206.5H17.7576" stroke="black"/>
</svg>
