<svg width="62" height="50" viewBox="0 0 62 50" fill="none" xmlns="http://www.w3.org/2000/svg">
<path d="M62 5.91436C59.6783 6.93565 57.2153 7.60555 54.6933 7.90172C57.3506 6.32491 59.3394 3.84283 60.2888 0.918284C57.7921 2.39026 55.0597 3.42663 52.2102 3.98238C50.4643 2.13784 48.2002 0.856414 45.7115 0.304258C43.2228 -0.247899 40.6244 -0.0453088 38.2532 0.885755C35.8819 1.81682 33.8473 3.43341 32.413 5.52589C30.9787 7.61837 30.2111 10.0902 30.2095 12.6209C30.2078 13.5889 30.317 14.5539 30.535 15.4974C25.4782 15.2454 20.5312 13.9411 16.0152 11.669C11.4992 9.3969 7.51507 6.20786 4.3214 2.30882C2.69471 5.0879 2.19635 8.37773 2.92777 11.5086C3.65919 14.6395 5.56541 17.3761 8.2584 19.1613C6.23697 19.0999 4.25979 18.5587 2.4924 17.5831V17.7431C2.49289 20.6579 3.50938 23.4828 5.36945 25.7386C7.22952 27.9944 9.81863 29.5422 12.6976 30.1195C11.6054 30.4142 10.4783 30.5622 9.3465 30.5594C8.54253 30.5598 7.74028 30.4856 6.9502 30.3379C7.76256 32.8457 9.34422 35.0388 11.4741 36.6108C13.6039 38.1828 16.1755 39.0551 18.8294 39.1057C13.4956 43.2485 6.72519 45.1257 0 44.3263C5.81577 48.0365 12.5852 50.0059 19.499 49.9992C24.2599 50.0311 28.9797 49.124 33.3844 47.3306C37.789 45.5371 41.7908 42.8931 45.1571 39.5521C48.5235 36.211 51.1875 32.2395 52.9943 27.8683C54.8011 23.497 55.7147 18.813 55.6822 14.0884C55.6822 13.5408 55.6688 12.9973 55.6419 12.4579C58.1359 10.6686 60.2889 8.45286 62 5.91436Z" fill="black"/>
</svg>
